<svg id="visual" viewBox="0 0 1000 300" width="1000" height="300" xmlns="http://www.w3.org/2000/svg" xmlns:xlink="http://www.w3.org/1999/xlink" version="1.1"><path d="M0 87L23.8 95.2C47.7 103.3 95.3 119.7 143 115.8C190.7 112 238.3 88 286 87.3C333.7 86.7 381.3 109.3 428.8 118.7C476.3 128 523.7 124 571.2 113.8C618.7 103.7 666.3 87.3 714 89.7C761.7 92 809.3 113 857 110.3C904.7 107.7 952.3 81.3 976.2 68.2L1000 55L1000 301L976.2 301C952.3 301 904.7 301 857 301C809.3 301 761.7 301 714 301C666.3 301 618.7 301 571.2 301C523.7 301 476.3 301 428.8 301C381.3 301 333.7 301 286 301C238.3 301 190.7 301 143 301C95.3 301 47.7 301 23.8 301L0 301Z" fill="#c4bdfa"></path><path d="M0 136L23.8 139.5C47.7 143 95.3 150 143 149C190.7 148 238.3 139 286 136.3C333.7 133.7 381.3 137.3 428.8 140.5C476.3 143.7 523.7 146.3 571.2 148.7C618.7 151 666.3 153 714 146.8C761.7 140.7 809.3 126.3 857 119.5C904.7 112.7 952.3 113.3 976.2 113.7L1000 114L1000 301L976.2 301C952.3 301 904.7 301 857 301C809.3 301 761.7 301 714 301C666.3 301 618.7 301 571.2 301C523.7 301 476.3 301 428.8 301C381.3 301 333.7 301 286 301C238.3 301 190.7 301 143 301C95.3 301 47.7 301 23.8 301L0 301Z" fill="#dda0e6"></path><path d="M0 144L23.8 143.8C47.7 143.7 95.3 143.3 143 142.5C190.7 141.7 238.3 140.3 286 141C333.7 141.7 381.3 144.3 428.8 156.3C476.3 168.3 523.7 189.7 571.2 190.2C618.7 190.7 666.3 170.3 714 158.5C761.7 146.7 809.3 143.3 857 149.7C904.7 156 952.3 172 976.2 180L1000 188L1000 301L976.2 301C952.3 301 904.7 301 857 301C809.3 301 761.7 301 714 301C666.3 301 618.7 301 571.2 301C523.7 301 476.3 301 428.8 301C381.3 301 333.7 301 286 301C238.3 301 190.7 301 143 301C95.3 301 47.7 301 23.8 301L0 301Z" fill="#f77ebd"></path><path d="M0 241L23.8 239.2C47.7 237.3 95.3 233.7 143 231.8C190.7 230 238.3 230 286 222.7C333.7 215.3 381.3 200.7 428.8 196.2C476.3 191.7 523.7 197.3 571.2 201.2C618.7 205 666.3 207 714 204.8C761.7 202.7 809.3 196.3 857 201.3C904.7 206.3 952.3 222.7 976.2 230.8L1000 239L1000 301L976.2 301C952.3 301 904.7 301 857 301C809.3 301 761.7 301 714 301C666.3 301 618.7 301 571.2 301C523.7 301 476.3 301 428.8 301C381.3 301 333.7 301 286 301C238.3 301 190.7 301 143 301C95.3 301 47.7 301 23.8 301L0 301Z" fill="#ff5f81"></path><path d="M0 225L23.8 224.8C47.7 224.7 95.3 224.3 143 229.7C190.7 235 238.3 246 286 247.2C333.7 248.3 381.3 239.7 428.8 238.8C476.3 238 523.7 245 571.2 251.3C618.7 257.7 666.3 263.3 714 263C761.7 262.7 809.3 256.3 857 253C904.7 249.7 952.3 249.3 976.2 249.2L1000 249L1000 301L976.2 301C952.3 301 904.7 301 857 301C809.3 301 761.7 301 714 301C666.3 301 618.7 301 571.2 301C523.7 301 476.3 301 428.8 301C381.3 301 333.7 301 286 301C238.3 301 190.7 301 143 301C95.3 301 47.7 301 23.8 301L0 301Z" fill="#f2533a"></path></svg>