<svg id="visual" viewBox="0 0 900 600" width="900" height="600" xmlns="http://www.w3.org/2000/svg" xmlns:xlink="http://www.w3.org/1999/xlink" version="1.1"><path d="M0 430L21.5 436.3C43 442.7 86 455.3 128.8 452.2C171.7 449 214.3 430 257.2 429.5C300 429 343 447 385.8 454.5C428.7 462 471.3 459 514.2 450.8C557 442.7 600 429.3 642.8 431.2C685.7 433 728.3 450 771.2 448C814 446 857 425 878.5 414.5L900 404L900 601L878.5 601C857 601 814 601 771.2 601C728.3 601 685.7 601 642.8 601C600 601 557 601 514.2 601C471.3 601 428.7 601 385.8 601C343 601 300 601 257.2 601C214.3 601 171.7 601 128.8 601C86 601 43 601 21.5 601L0 601Z" fill="#c4bdfa"></path><path d="M0 469L21.5 471.7C43 474.3 86 479.7 128.8 478.8C171.7 478 214.3 471 257.2 469C300 467 343 470 385.8 472.5C428.7 475 471.3 477 514.2 478.7C557 480.3 600 481.7 642.8 476.8C685.7 472 728.3 461 771.2 455.7C814 450.3 857 450.7 878.5 450.8L900 451L900 601L878.5 601C857 601 814 601 771.2 601C728.3 601 685.7 601 642.8 601C600 601 557 601 514.2 601C471.3 601 428.7 601 385.8 601C343 601 300 601 257.2 601C214.3 601 171.7 601 128.8 601C86 601 43 601 21.5 601L0 601Z" fill="#dda0e6"></path><path d="M0 475L21.5 474.8C43 474.7 86 474.3 128.8 473.7C171.7 473 214.3 472 257.2 472.5C300 473 343 475 385.8 484.7C428.7 494.3 471.3 511.7 514.2 512.2C557 512.7 600 496.3 642.8 486.8C685.7 477.3 728.3 474.7 771.2 479.7C814 484.7 857 497.3 878.5 503.7L900 510L900 601L878.5 601C857 601 814 601 771.2 601C728.3 601 685.7 601 642.8 601C600 601 557 601 514.2 601C471.3 601 428.7 601 385.8 601C343 601 300 601 257.2 601C214.3 601 171.7 601 128.8 601C86 601 43 601 21.5 601L0 601Z" fill="#f77ebd"></path><path d="M0 553L21.5 551.3C43 549.7 86 546.3 128.8 544.8C171.7 543.3 214.3 543.7 257.2 538C300 532.3 343 520.7 385.8 517C428.7 513.3 471.3 517.7 514.2 520.7C557 523.7 600 525.3 642.8 523.7C685.7 522 728.3 517 771.2 521C814 525 857 538 878.5 544.5L900 551L900 601L878.5 601C857 601 814 601 771.2 601C728.3 601 685.7 601 642.8 601C600 601 557 601 514.2 601C471.3 601 428.7 601 385.8 601C343 601 300 601 257.2 601C214.3 601 171.7 601 128.8 601C86 601 43 601 21.5 601L0 601Z" fill="#ff5f81"></path><path d="M0 540L21.5 539.8C43 539.7 86 539.3 128.8 543.5C171.7 547.7 214.3 556.3 257.2 557.2C300 558 343 551 385.8 550.5C428.7 550 471.3 556 514.2 561.2C557 566.3 600 570.7 642.8 570.3C685.7 570 728.3 565 771.2 562.3C814 559.7 857 559.3 878.5 559.2L900 559L900 601L878.5 601C857 601 814 601 771.2 601C728.3 601 685.7 601 642.8 601C600 601 557 601 514.2 601C471.3 601 428.7 601 385.8 601C343 601 300 601 257.2 601C214.3 601 171.7 601 128.8 601C86 601 43 601 21.5 601L0 601Z" fill="#f2533a"></path></svg>