<svg id="visual" viewBox="0 0 900 600" width="900" height="600" xmlns="http://www.w3.org/2000/svg" xmlns:xlink="http://www.w3.org/1999/xlink" version="1.1"><path d="M0 477L12.5 468.5C25 460 50 443 75 425.5C100 408 125 390 150 390.5C175 391 200 410 225 405.3C250 400.7 275 372.3 300 381.5C325 390.7 350 437.3 375 447.3C400 457.3 425 430.7 450 411.3C475 392 500 380 525 382.5C550 385 575 402 600 402.5C625 403 650 387 675 383.5C700 380 725 389 750 407C775 425 800 452 825 466.2C850 480.3 875 481.7 887.5 482.3L900 483L900 0L887.5 0C875 0 850 0 825 0C800 0 775 0 750 0C725 0 700 0 675 0C650 0 625 0 600 0C575 0 550 0 525 0C500 0 475 0 450 0C425 0 400 0 375 0C350 0 325 0 300 0C275 0 250 0 225 0C200 0 175 0 150 0C125 0 100 0 75 0C50 0 25 0 12.5 0L0 0Z" fill="#c4bdfa"></path><path d="M0 302L12.5 312.2C25 322.3 50 342.7 75 364.3C100 386 125 409 150 406.8C175 404.7 200 377.3 225 361.3C250 345.3 275 340.7 300 334.3C325 328 350 320 375 313.5C400 307 425 302 450 311.2C475 320.3 500 343.7 525 361.8C550 380 575 393 600 380.3C625 367.7 650 329.3 675 316.7C700 304 725 317 750 331.3C775 345.7 800 361.3 825 359.3C850 357.3 875 337.7 887.5 327.8L900 318L900 0L887.5 0C875 0 850 0 825 0C800 0 775 0 750 0C725 0 700 0 675 0C650 0 625 0 600 0C575 0 550 0 525 0C500 0 475 0 450 0C425 0 400 0 375 0C350 0 325 0 300 0C275 0 250 0 225 0C200 0 175 0 150 0C125 0 100 0 75 0C50 0 25 0 12.5 0L0 0Z" fill="#d8a6ec"></path><path d="M0 292L12.5 290.3C25 288.7 50 285.3 75 274.7C100 264 125 246 150 238.5C175 231 200 234 225 253.2C250 272.3 275 307.7 300 314.3C325 321 350 299 375 281.3C400 263.7 425 250.3 450 242.2C475 234 500 231 525 233.5C550 236 575 244 600 261C625 278 650 304 675 308.5C700 313 725 296 750 289.8C775 283.7 800 288.3 825 298.5C850 308.7 875 324.3 887.5 332.2L900 340L900 0L887.5 0C875 0 850 0 825 0C800 0 775 0 750 0C725 0 700 0 675 0C650 0 625 0 600 0C575 0 550 0 525 0C500 0 475 0 450 0C425 0 400 0 375 0C350 0 325 0 300 0C275 0 250 0 225 0C200 0 175 0 150 0C125 0 100 0 75 0C50 0 25 0 12.5 0L0 0Z" fill="#ee8cd0"></path><path d="M0 251L12.5 246.2C25 241.3 50 231.7 75 230.7C100 229.7 125 237.3 150 234.5C175 231.7 200 218.3 225 213.2C250 208 275 211 300 220.7C325 230.3 350 246.7 375 239.8C400 233 425 203 450 205C475 207 500 241 525 240.5C550 240 575 205 600 186.3C625 167.7 650 165.3 675 168.7C700 172 725 181 750 199.5C775 218 800 246 825 256.5C850 267 875 260 887.5 256.5L900 253L900 0L887.5 0C875 0 850 0 825 0C800 0 775 0 750 0C725 0 700 0 675 0C650 0 625 0 600 0C575 0 550 0 525 0C500 0 475 0 450 0C425 0 400 0 375 0C350 0 325 0 300 0C275 0 250 0 225 0C200 0 175 0 150 0C125 0 100 0 75 0C50 0 25 0 12.5 0L0 0Z" fill="#fd71a7"></path><path d="M0 113L12.5 114.5C25 116 50 119 75 119C100 119 125 116 150 129.3C175 142.7 200 172.3 225 180.3C250 188.3 275 174.7 300 164.7C325 154.7 350 148.3 375 142.8C400 137.3 425 132.7 450 138.3C475 144 500 160 525 158.5C550 157 575 138 600 130.3C625 122.7 650 126.3 675 127C700 127.7 725 125.3 750 124.2C775 123 800 123 825 124C850 125 875 127 887.5 128L900 129L900 0L887.5 0C875 0 850 0 825 0C800 0 775 0 750 0C725 0 700 0 675 0C650 0 625 0 600 0C575 0 550 0 525 0C500 0 475 0 450 0C425 0 400 0 375 0C350 0 325 0 300 0C275 0 250 0 225 0C200 0 175 0 150 0C125 0 100 0 75 0C50 0 25 0 12.5 0L0 0Z" fill="#ff5b74"></path><path d="M0 66L12.5 71C25 76 50 86 75 94.2C100 102.3 125 108.7 150 104.3C175 100 200 85 225 73.5C250 62 275 54 300 50.3C325 46.7 350 47.3 375 56.5C400 65.7 425 83.3 450 95.3C475 107.3 500 113.7 525 117.2C550 120.7 575 121.3 600 120C625 118.7 650 115.3 675 102.7C700 90 725 68 750 70C775 72 800 98 825 108C850 118 875 112 887.5 109L900 106L900 0L887.5 0C875 0 850 0 825 0C800 0 775 0 750 0C725 0 700 0 675 0C650 0 625 0 600 0C575 0 550 0 525 0C500 0 475 0 450 0C425 0 400 0 375 0C350 0 325 0 300 0C275 0 250 0 225 0C200 0 175 0 150 0C125 0 100 0 75 0C50 0 25 0 12.5 0L0 0Z" fill="#f2533a"></path></svg>